<mxfile host="app.diagrams.net" agent="Mozilla/5.0 (Windows NT 10.0; Win64; x64; rv:137.0) Gecko/20100101 Firefox/137.0" version="26.2.14">
  <diagram name="Seite-1" id="uUq1k5Td3A4MML32XgdD">
    <mxGraphModel dx="787" dy="427" grid="1" gridSize="10" guides="1" tooltips="1" connect="1" arrows="1" fold="1" page="1" pageScale="1" pageWidth="827" pageHeight="1169" math="0" shadow="0">
      <root>
        <mxCell id="0" />
        <mxCell id="1" parent="0" />
        <mxCell id="1toj12y2_de78bXx69sF-4" value="" style="edgeStyle=orthogonalEdgeStyle;rounded=0;orthogonalLoop=1;jettySize=auto;html=1;" edge="1" parent="1" source="1toj12y2_de78bXx69sF-2" target="1toj12y2_de78bXx69sF-3">
          <mxGeometry relative="1" as="geometry" />
        </mxCell>
        <mxCell id="1toj12y2_de78bXx69sF-13" style="edgeStyle=orthogonalEdgeStyle;rounded=0;orthogonalLoop=1;jettySize=auto;html=1;exitX=0.75;exitY=0;exitDx=0;exitDy=0;" edge="1" parent="1" source="1toj12y2_de78bXx69sF-2" target="1toj12y2_de78bXx69sF-14">
          <mxGeometry relative="1" as="geometry">
            <mxPoint x="500" y="470" as="targetPoint" />
          </mxGeometry>
        </mxCell>
        <mxCell id="1toj12y2_de78bXx69sF-22" style="edgeStyle=orthogonalEdgeStyle;rounded=0;orthogonalLoop=1;jettySize=auto;html=1;exitX=0.5;exitY=1;exitDx=0;exitDy=0;entryX=0.75;entryY=0;entryDx=0;entryDy=0;" edge="1" parent="1" source="1toj12y2_de78bXx69sF-2" target="1toj12y2_de78bXx69sF-11">
          <mxGeometry relative="1" as="geometry" />
        </mxCell>
        <mxCell id="1toj12y2_de78bXx69sF-2" value="land grabbing" style="rounded=1;whiteSpace=wrap;html=1;" vertex="1" parent="1">
          <mxGeometry x="330" y="520" width="120" height="60" as="geometry" />
        </mxCell>
        <mxCell id="1toj12y2_de78bXx69sF-15" style="edgeStyle=orthogonalEdgeStyle;rounded=0;orthogonalLoop=1;jettySize=auto;html=1;exitX=0.5;exitY=0;exitDx=0;exitDy=0;" edge="1" parent="1" source="1toj12y2_de78bXx69sF-3" target="1toj12y2_de78bXx69sF-16">
          <mxGeometry relative="1" as="geometry">
            <mxPoint x="640" y="460" as="targetPoint" />
          </mxGeometry>
        </mxCell>
        <mxCell id="1toj12y2_de78bXx69sF-24" style="edgeStyle=orthogonalEdgeStyle;rounded=0;orthogonalLoop=1;jettySize=auto;html=1;exitX=0.25;exitY=1;exitDx=0;exitDy=0;entryX=0.75;entryY=0;entryDx=0;entryDy=0;" edge="1" parent="1" source="1toj12y2_de78bXx69sF-3" target="1toj12y2_de78bXx69sF-6">
          <mxGeometry relative="1" as="geometry" />
        </mxCell>
        <mxCell id="1toj12y2_de78bXx69sF-25" value="wobei meist eher" style="edgeLabel;html=1;align=center;verticalAlign=middle;resizable=0;points=[];" vertex="1" connectable="0" parent="1toj12y2_de78bXx69sF-24">
          <mxGeometry x="-0.0141" y="-1" relative="1" as="geometry">
            <mxPoint as="offset" />
          </mxGeometry>
        </mxCell>
        <mxCell id="1toj12y2_de78bXx69sF-3" value="Sicherung der Nahrungsmittelversorgung" style="rounded=1;whiteSpace=wrap;html=1;" vertex="1" parent="1">
          <mxGeometry x="530" y="520" width="150" height="60" as="geometry" />
        </mxCell>
        <mxCell id="1toj12y2_de78bXx69sF-9" value="" style="edgeStyle=orthogonalEdgeStyle;rounded=0;orthogonalLoop=1;jettySize=auto;html=1;" edge="1" parent="1" source="1toj12y2_de78bXx69sF-6" target="1toj12y2_de78bXx69sF-8">
          <mxGeometry relative="1" as="geometry" />
        </mxCell>
        <mxCell id="1toj12y2_de78bXx69sF-27" value="" style="edgeStyle=orthogonalEdgeStyle;rounded=0;orthogonalLoop=1;jettySize=auto;html=1;" edge="1" parent="1" source="1toj12y2_de78bXx69sF-6" target="1toj12y2_de78bXx69sF-26">
          <mxGeometry relative="1" as="geometry" />
        </mxCell>
        <mxCell id="1toj12y2_de78bXx69sF-6" value="profitablere Herstellung v. Agrargütern für Weltmarkt" style="whiteSpace=wrap;html=1;rounded=1;" vertex="1" parent="1">
          <mxGeometry x="390" y="670" width="120" height="60" as="geometry" />
        </mxCell>
        <mxCell id="1toj12y2_de78bXx69sF-32" value="" style="edgeStyle=orthogonalEdgeStyle;rounded=0;orthogonalLoop=1;jettySize=auto;html=1;" edge="1" parent="1" source="1toj12y2_de78bXx69sF-8" target="1toj12y2_de78bXx69sF-31">
          <mxGeometry relative="1" as="geometry" />
        </mxCell>
        <mxCell id="1toj12y2_de78bXx69sF-33" value="kann führen zu" style="edgeLabel;html=1;align=center;verticalAlign=middle;resizable=0;points=[];" vertex="1" connectable="0" parent="1toj12y2_de78bXx69sF-32">
          <mxGeometry x="-0.1137" relative="1" as="geometry">
            <mxPoint as="offset" />
          </mxGeometry>
        </mxCell>
        <mxCell id="1toj12y2_de78bXx69sF-36" value="" style="edgeStyle=orthogonalEdgeStyle;rounded=0;orthogonalLoop=1;jettySize=auto;html=1;" edge="1" parent="1" source="1toj12y2_de78bXx69sF-8" target="1toj12y2_de78bXx69sF-35">
          <mxGeometry relative="1" as="geometry" />
        </mxCell>
        <mxCell id="1toj12y2_de78bXx69sF-8" value="Wertverlust durch Verkauf von Land, geringere Einnahmen und gesteigerte Abhängigkeit" style="whiteSpace=wrap;html=1;rounded=1;" vertex="1" parent="1">
          <mxGeometry x="325" y="790" width="130" height="80" as="geometry" />
        </mxCell>
        <mxCell id="1toj12y2_de78bXx69sF-23" style="edgeStyle=orthogonalEdgeStyle;rounded=0;orthogonalLoop=1;jettySize=auto;html=1;exitX=0.75;exitY=1;exitDx=0;exitDy=0;entryX=0.25;entryY=0;entryDx=0;entryDy=0;" edge="1" parent="1" source="1toj12y2_de78bXx69sF-11" target="1toj12y2_de78bXx69sF-8">
          <mxGeometry relative="1" as="geometry" />
        </mxCell>
        <mxCell id="1toj12y2_de78bXx69sF-11" value="Ausnutzung wirtschaftlicher Interessen, keine hinreichenden Entschädigungen" style="rounded=1;whiteSpace=wrap;html=1;" vertex="1" parent="1">
          <mxGeometry x="250" y="670" width="130" height="70" as="geometry" />
        </mxCell>
        <mxCell id="1toj12y2_de78bXx69sF-14" value="kurzfristiger Gewinn, Möglichkeiten zu investieren" style="rounded=1;whiteSpace=wrap;html=1;" vertex="1" parent="1">
          <mxGeometry x="360" y="400" width="120" height="60" as="geometry" />
        </mxCell>
        <mxCell id="1toj12y2_de78bXx69sF-16" value="Aufstieg durch gestiegenes Wissen, Umverlagerung der Sektoren, Technologietransfer, Zugang zu neuen Märkten" style="rounded=1;whiteSpace=wrap;html=1;" vertex="1" parent="1">
          <mxGeometry x="550" y="380" width="150" height="80" as="geometry" />
        </mxCell>
        <mxCell id="1toj12y2_de78bXx69sF-18" style="edgeStyle=orthogonalEdgeStyle;rounded=0;orthogonalLoop=1;jettySize=auto;html=1;exitX=0;exitY=0.5;exitDx=0;exitDy=0;entryX=1;entryY=0.5;entryDx=0;entryDy=0;" edge="1" parent="1" source="1toj12y2_de78bXx69sF-17" target="1toj12y2_de78bXx69sF-16">
          <mxGeometry relative="1" as="geometry" />
        </mxCell>
        <mxCell id="1toj12y2_de78bXx69sF-17" value="Kooperation mit Unternehmen im Inland" style="rounded=1;whiteSpace=wrap;html=1;" vertex="1" parent="1">
          <mxGeometry x="770" y="390" width="120" height="60" as="geometry" />
        </mxCell>
        <mxCell id="1toj12y2_de78bXx69sF-20" style="edgeStyle=orthogonalEdgeStyle;rounded=0;orthogonalLoop=1;jettySize=auto;html=1;exitX=0;exitY=0.5;exitDx=0;exitDy=0;entryX=1;entryY=0.5;entryDx=0;entryDy=0;" edge="1" parent="1" source="1toj12y2_de78bXx69sF-19" target="1toj12y2_de78bXx69sF-17">
          <mxGeometry relative="1" as="geometry" />
        </mxCell>
        <mxCell id="1toj12y2_de78bXx69sF-19" value="joint ventures" style="rounded=1;whiteSpace=wrap;html=1;" vertex="1" parent="1">
          <mxGeometry x="970" y="390" width="120" height="60" as="geometry" />
        </mxCell>
        <mxCell id="1toj12y2_de78bXx69sF-26" value="Ressourcenkonflikt-, ausnutzung (z.B. Wasser)" style="whiteSpace=wrap;html=1;rounded=1;" vertex="1" parent="1">
          <mxGeometry x="600" y="680" width="120" height="60" as="geometry" />
        </mxCell>
        <mxCell id="1toj12y2_de78bXx69sF-28" style="edgeStyle=orthogonalEdgeStyle;rounded=0;orthogonalLoop=1;jettySize=auto;html=1;exitX=0.75;exitY=1;exitDx=0;exitDy=0;entryX=0.403;entryY=0.006;entryDx=0;entryDy=0;entryPerimeter=0;" edge="1" parent="1" source="1toj12y2_de78bXx69sF-2" target="1toj12y2_de78bXx69sF-6">
          <mxGeometry relative="1" as="geometry" />
        </mxCell>
        <mxCell id="1toj12y2_de78bXx69sF-29" style="edgeStyle=orthogonalEdgeStyle;rounded=0;orthogonalLoop=1;jettySize=auto;html=1;exitX=1;exitY=0.25;exitDx=0;exitDy=0;entryX=0.351;entryY=1.044;entryDx=0;entryDy=0;entryPerimeter=0;" edge="1" parent="1">
          <mxGeometry relative="1" as="geometry">
            <mxPoint x="510" y="682.36" as="sourcePoint" />
            <mxPoint x="582.6500000000001" y="580" as="targetPoint" />
            <Array as="points">
              <mxPoint x="583" y="682" />
            </Array>
          </mxGeometry>
        </mxCell>
        <mxCell id="1toj12y2_de78bXx69sF-30" value="führt zu Verlust " style="edgeLabel;html=1;align=center;verticalAlign=middle;resizable=0;points=[];" vertex="1" connectable="0" parent="1toj12y2_de78bXx69sF-29">
          <mxGeometry x="0.189" relative="1" as="geometry">
            <mxPoint as="offset" />
          </mxGeometry>
        </mxCell>
        <mxCell id="1toj12y2_de78bXx69sF-31" value="Neokolonialismus" style="whiteSpace=wrap;html=1;rounded=1;" vertex="1" parent="1">
          <mxGeometry x="590" y="800" width="120" height="60" as="geometry" />
        </mxCell>
        <mxCell id="1toj12y2_de78bXx69sF-34" style="edgeStyle=orthogonalEdgeStyle;rounded=0;orthogonalLoop=1;jettySize=auto;html=1;exitX=0.5;exitY=1;exitDx=0;exitDy=0;entryX=0.586;entryY=-0.028;entryDx=0;entryDy=0;entryPerimeter=0;" edge="1" parent="1" source="1toj12y2_de78bXx69sF-26" target="1toj12y2_de78bXx69sF-31">
          <mxGeometry relative="1" as="geometry" />
        </mxCell>
        <mxCell id="1toj12y2_de78bXx69sF-35" value="niedrigeres Einkommen, geschwächte Wirtschaft" style="whiteSpace=wrap;html=1;rounded=1;" vertex="1" parent="1">
          <mxGeometry x="120" y="800" width="120" height="60" as="geometry" />
        </mxCell>
        <mxCell id="1toj12y2_de78bXx69sF-51" style="edgeStyle=orthogonalEdgeStyle;rounded=0;orthogonalLoop=1;jettySize=auto;html=1;exitX=0;exitY=0.5;exitDx=0;exitDy=0;entryX=1;entryY=0.5;entryDx=0;entryDy=0;" edge="1" parent="1" source="1toj12y2_de78bXx69sF-37" target="1toj12y2_de78bXx69sF-26">
          <mxGeometry relative="1" as="geometry" />
        </mxCell>
        <mxCell id="1toj12y2_de78bXx69sF-37" value="cash crop" style="rounded=1;whiteSpace=wrap;html=1;" vertex="1" parent="1">
          <mxGeometry x="800" y="680" width="120" height="60" as="geometry" />
        </mxCell>
        <mxCell id="1toj12y2_de78bXx69sF-39" style="edgeStyle=orthogonalEdgeStyle;rounded=0;orthogonalLoop=1;jettySize=auto;html=1;exitX=0;exitY=0.5;exitDx=0;exitDy=0;entryX=1;entryY=0.5;entryDx=0;entryDy=0;" edge="1" parent="1" source="1toj12y2_de78bXx69sF-38" target="1toj12y2_de78bXx69sF-3">
          <mxGeometry relative="1" as="geometry" />
        </mxCell>
        <mxCell id="1toj12y2_de78bXx69sF-46" style="edgeStyle=orthogonalEdgeStyle;rounded=0;orthogonalLoop=1;jettySize=auto;html=1;exitX=1;exitY=0.25;exitDx=0;exitDy=0;entryX=0.25;entryY=1;entryDx=0;entryDy=0;" edge="1" parent="1" source="1toj12y2_de78bXx69sF-38" target="1toj12y2_de78bXx69sF-41">
          <mxGeometry relative="1" as="geometry" />
        </mxCell>
        <mxCell id="1toj12y2_de78bXx69sF-49" style="edgeStyle=orthogonalEdgeStyle;rounded=0;orthogonalLoop=1;jettySize=auto;html=1;exitX=1;exitY=0.5;exitDx=0;exitDy=0;entryX=0;entryY=0.5;entryDx=0;entryDy=0;" edge="1" parent="1" source="1toj12y2_de78bXx69sF-38" target="1toj12y2_de78bXx69sF-48">
          <mxGeometry relative="1" as="geometry" />
        </mxCell>
        <mxCell id="1toj12y2_de78bXx69sF-38" value="food crop" style="rounded=1;whiteSpace=wrap;html=1;" vertex="1" parent="1">
          <mxGeometry x="780" y="555" width="120" height="60" as="geometry" />
        </mxCell>
        <mxCell id="1toj12y2_de78bXx69sF-43" style="edgeStyle=orthogonalEdgeStyle;rounded=0;orthogonalLoop=1;jettySize=auto;html=1;exitX=0;exitY=0.25;exitDx=0;exitDy=0;" edge="1" parent="1" source="1toj12y2_de78bXx69sF-41" target="1toj12y2_de78bXx69sF-44">
          <mxGeometry relative="1" as="geometry">
            <mxPoint x="800" y="475" as="targetPoint" />
          </mxGeometry>
        </mxCell>
        <mxCell id="1toj12y2_de78bXx69sF-41" value="Subsistenzwirtschaft" style="rounded=1;whiteSpace=wrap;html=1;" vertex="1" parent="1">
          <mxGeometry x="920" y="460" width="120" height="60" as="geometry" />
        </mxCell>
        <mxCell id="1toj12y2_de78bXx69sF-44" value="Reziprozität" style="rounded=1;whiteSpace=wrap;html=1;" vertex="1" parent="1">
          <mxGeometry x="710" y="470" width="120" height="60" as="geometry" />
        </mxCell>
        <mxCell id="1toj12y2_de78bXx69sF-48" value="Agroforstwirtschaft" style="rounded=1;whiteSpace=wrap;html=1;" vertex="1" parent="1">
          <mxGeometry x="1020" y="555" width="120" height="60" as="geometry" />
        </mxCell>
      </root>
    </mxGraphModel>
  </diagram>
</mxfile>
